<svg xmlns="http://www.w3.org/2000/svg" width="33.393" height="33.406" viewBox="0 0 33.393 33.406"><g transform="translate(-3548.315 -4437.637)"><g transform="translate(3555.813 4446.491)" fill="none" stroke="#fff" stroke-width="1"><ellipse cx="9" cy="8.5" rx="9" ry="8.5" stroke="none"/><ellipse cx="9" cy="8.5" rx="8.5" ry="8" fill="none"/></g><g transform="translate(3575.225 4441.158) rotate(43)" fill="none"><path d="M2.027,0,4.055,5.726H0Z" stroke="none"/><path d="M 2.027320861816406 2.996370315551758 L 1.414863586425781 4.726296424865723 L 2.639778137207031 4.726296424865723 L 2.027320861816406 2.996370315551758 M 2.027320861816406 -3.814697265625e-06 L 4.054640769958496 5.726296424865723 L 9.5367431640625e-07 5.726296424865723 L 2.027320861816406 -3.814697265625e-06 Z" stroke="none" fill="#fff"/></g><g transform="matrix(0.017, 1, -1, 0.017, 3581.637, 4452.445)" fill="none"><path d="M2.027,0,4.055,5.726H0Z" stroke="none"/><path d="M 2.027320861816406 2.996370315551758 L 1.414863586425781 4.726296424865723 L 2.639778137207031 4.726296424865723 L 2.027320861816406 2.996370315551758 M 2.027320861816406 -3.814697265625e-06 L 4.054640769958496 5.726296424865723 L 9.5367431640625e-07 5.726296424865723 L 2.027320861816406 -3.814697265625e-06 Z" stroke="none" fill="#fff"/></g><g transform="translate(3578.213 4464.645) rotate(135)" fill="none"><path d="M2.027,0,4.055,5.726H0Z" stroke="none"/><path d="M 2.027320861816406 2.996370315551758 L 1.414863586425781 4.726296424865723 L 2.639778137207031 4.726296424865723 L 2.027320861816406 2.996370315551758 M 2.027320861816406 -3.814697265625e-06 L 4.054640769958496 5.726296424865723 L 9.5367431640625e-07 5.726296424865723 L 2.027320861816406 -3.814697265625e-06 Z" stroke="none" fill="#fff"/></g><g transform="matrix(-1, 0.017, -0.017, -1, 3567.087, 4470.972)" fill="none"><path d="M2.027,0,4.055,5.726H0Z" stroke="none"/><path d="M 2.027320861816406 2.996370315551758 L 1.414863586425781 4.726296424865723 L 2.639778137207031 4.726296424865723 L 2.027320861816406 2.996370315551758 M 2.027320861816406 -3.814697265625e-06 L 4.054640769958496 5.726296424865723 L 9.5367431640625e-07 5.726296424865723 L 2.027320861816406 -3.814697265625e-06 Z" stroke="none" fill="#fff"/></g><g transform="translate(3554.797 4467.521) rotate(-137)" fill="none"><path d="M2.027,0,4.055,5.726H0Z" stroke="none"/><path d="M 2.027322292327881 2.996372222900391 L 1.414865016937256 4.726298332214355 L 2.639779567718506 4.726298332214355 L 2.027322292327881 2.996372222900391 M 2.027322292327881 -1.9073486328125e-06 L 4.054642200469971 5.726298332214355 L 2.384185791015625e-06 5.726298332214355 L 2.027322292327881 -1.9073486328125e-06 Z" stroke="none" fill="#fff"/></g><g transform="matrix(-0.017, -1, 1, -0.017, 3548.385, 4456.234)" fill="none"><path d="M2.027,0,4.055,5.726H0Z" stroke="none"/><path d="M 2.027321815490723 2.99637246131897 L 1.414864540100098 4.726298332214355 L 2.639779090881348 4.726298332214355 L 2.027321815490723 2.99637246131897 M 2.027321815490723 -1.430511474609375e-06 L 4.054641723632812 5.726298332214355 L 1.9073486328125e-06 5.726298332214355 L 2.027321815490723 -1.430511474609375e-06 Z" stroke="none" fill="#fff"/></g><g transform="translate(3551.809 4444.034) rotate(-45)" fill="none"><path d="M2.027,0,4.055,5.726H0Z" stroke="none"/><path d="M 2.027322053909302 2.996372222900391 L 1.414864778518677 4.726298332214355 L 2.639779090881348 4.726298332214355 L 2.027322053909302 2.996372222900391 M 2.027322053909302 -1.9073486328125e-06 L 4.054642200469971 5.726298332214355 L 1.9073486328125e-06 5.726298332214355 L 2.027322053909302 -1.9073486328125e-06 Z" stroke="none" fill="#fff"/></g><g transform="matrix(1, -0.017, 0.017, 1, 3562.936, 4437.708)" fill="none"><path d="M2.027,0,4.055,5.726H0Z" stroke="none"/><path d="M 2.02732253074646 2.996372222900391 L 1.414865255355835 4.726298332214355 L 2.639779567718506 4.726298332214355 L 2.02732253074646 2.996372222900391 M 2.02732253074646 -1.9073486328125e-06 L 4.054642677307129 5.726298332214355 L 2.384185791015625e-06 5.726298332214355 L 2.02732253074646 -1.9073486328125e-06 Z" stroke="none" fill="#fff"/></g></g></svg>